# xmcd CD database file
#
# Track frame offsets:
#	150
#	21998
#	42702
#	66269
#	84632
#	106571
#	131505
#	149472
#	165566
#	181314
#	208303
#	228484
#
# Disc length: 3333 seconds
#
# Revision: 0
# Processed by: cddbd v1.5.2PL0 Copyright (c) Steve Scherf et al.
# Submitted via: Feurio! 1.68 - http://www.feurio.com
#
DISCID=ac0d030c
DTITLE=Mark Selby - Nine Pound Hammer
DYEAR=1900
DGENRE=Blues
TTITLE0=Nine Pound Hammer
TTITLE1=I Should Know Better
TTITLE2=Cold One Closin' In
TTITLE3=Buck-Fifty and A Flat-Head Ford
TTITLE4=Leveler, Reveler
TTITLE5=Baby I Do
TTITLE6=A Good Friend To The Blues
TTITLE7=Sure Hope It Ain't A Train
TTITLE8=Dangerous Game
TTITLE9=I Stole Your Love
TTITLE10=Tell The Truth
TTITLE11=Guitar In The Rain
EXTD=
EXTT0=
EXTT1=
EXTT2=
EXTT3=
EXTT4=
EXTT5=
EXTT6=
EXTT7=
EXTT8=
EXTT9=
EXTT10=
EXTT11=
PLAYORDER=
